<?xml version="1.0" encoding="UTF-8"?>
<svg xmlns="http://www.w3.org/2000/svg" xmlns:xlink="http://www.w3.org/1999/xlink" width="460.26pt" height="236.23pt" viewBox="0 0 460.26 236.23" version="1.1">
<g id="surface1">
<path style=" stroke:none;fill-rule:evenodd;fill:rgb(13.699341%,12.199402%,12.5%);fill-opacity:1;" d="M 230.128906 236.230469 C 356.578125 236.230469 460.257813 183.375 460.257813 117.914063 C 460.257813 53.265625 356.578125 0.00390625 230.128906 0.00390625 C 103.273438 0.00390625 0 53.265625 0 117.914063 C 0 183.375 103.273438 236.230469 230.128906 236.230469 "/>
<path style=" stroke:none;fill-rule:evenodd;fill:rgb(100%,100%,100%);fill-opacity:1;" d="M 230.128906 224.847656 C 349.257813 224.847656 446.433594 176.867188 446.433594 117.914063 C 446.433594 59.367188 349.257813 11.386719 230.128906 11.386719 C 110.59375 11.386719 13.824219 59.367188 13.824219 117.914063 C 13.824219 176.867188 110.59375 224.847656 230.128906 224.847656 "/>
<path style=" stroke:none;fill-rule:evenodd;fill:rgb(13.699341%,12.199402%,12.5%);fill-opacity:1;" d="M 182.558594 147.1875 C 194.757813 138.648438 207.765625 134.585938 221.183594 99.210938 C 231.347656 64.648438 222.402344 34.5625 215.898438 10.980469 C 205.734375 10.980469 206.140625 10.574219 197.601563 11.792969 L 179.304688 143.933594 C 178.492188 147.1875 180.117188 148.8125 182.558594 147.1875 "/>
<path style=" stroke:none;fill-rule:evenodd;fill:rgb(13.699341%,12.199402%,12.5%);fill-opacity:1;" d="M 315.105469 39.441406 C 284.613281 101.242188 253.304688 137.835938 221.589844 156.945313 C 205.734375 166.703125 190.691406 171.585938 174.019531 173.210938 C 169.546875 173.210938 163.042969 173.210938 164.667969 163.453125 L 180.523438 32.9375 C 102.460938 43.507813 44.726563 78.066406 44.726563 117.914063 C 44.726563 165.484375 123.195313 204.515625 221.589844 206.144531 C 224.84375 206.144531 227.28125 206.957031 230.128906 206.957031 C 332.589844 206.957031 415.941406 166.703125 415.941406 117.914063 C 415.941406 83.761719 374.875 54.484375 315.105469 39.441406 M 265.910156 195.976563 C 251.269531 198.011719 236.632813 198.824219 221.589844 198.824219 C 202.074219 199.636719 182.558594 198.011719 163.449219 194.757813 C 158.976563 191.097656 160.601563 184.59375 167.105469 184.1875 C 184.996094 185.8125 203.292969 185.8125 221.589844 184.59375 C 231.347656 184.59375 240.699219 183.375 250.460938 181.75 C 261.84375 170.363281 230.128906 157.757813 253.710938 150.847656 L 281.359375 152.066406 L 282.984375 162.636719 C 245.984375 160.199219 297.621094 190.691406 265.910156 195.976563 "/>
</g>
</svg>
