<svg height="20" viewBox="0 0 100 100" width="20" xmlns="http://www.w3.org/2000/svg"><path d="m46.6693878.30326797c-3.1490613.57124183-5.9911837 1.50522876-8.7007347 2.86078432-1.4138776.70653595-1.8318368 1.03594771-3.1026939 2.44379085-.3546123.39281045-.7301225.61895425-1.428898.85947712-5.8605714 2.01633987-6.6919183 2.69019608-5.7149388 4.63267974 1.5222858 3.0254902 3.327347 5.1385621 4.7686531 5.5843137 1.2767347.3947713 1.4693878.3732026 1.738449-.1901961.4512653-.9470588 2.5730612-1.8405228 4.629551-1.9496732l1.1990204-.0633986.597551.64183c1.1500409 1.2359477 1.5386123 2.5934641.8822858 3.079085-.9991837.7385621-5.354449 1.1104575-6.356898.5424836l-.5740408-.3261437-.3755102.3758169c-.2063674.2071896-.5603266.4699347-.7862857.5843138-1.1631021.5882353-1.1578776.9313725.0411428 2.769281 2.4 3.6797386 3.7315919 4.2830066 6.0604082 2.7457517 1.6783673-1.1078432 2.2628571-1.1673203 2.9897143-.303268.6308571.7509804.3395918 1.4215686-1.7521633 4.0333333-1.3570612 1.6941177-.9260408 1.748366-5.7658776-.7267974-15.7100408-8.0339869-15.2907755-7.872549-20.4192653-7.8575163-4.68832649.0137255-5.19379588.1797385-7.4148571 2.4372549-2.2635102 2.3-2.62073469 3.4013072-1.72342857 5.3130719.74644898 1.5908497.81828571 1.6228758 2.56653061 1.1431372 2.52865306-.6941176 4.09599996-.0385621 4.34351016 1.8176471.1090613.8189542.1802449.8679739 1.4119184.9660131 1.2891429.1032679 2.6226939.7366013 4.5577143 2.1666666 2.7173878 2.0084968 2.8016327 2.2869281.7484082 2.4784314-2.9211429.272549-8.3167347 1.3797386-10.74873473 2.2052288-2.95183674 1.0026143-3.66367347 1.5542483-4.67853061 3.6281045-1.95330613 3.9908497-1.97420409 5.3490196-.11820409 7.6555556.83853062 1.0424837.93387755 1.0477124 2.70563266.1535948 3.13077551-1.5797386 4.40620407-1.6228758 5.43869387-.1843138.3147755.4385621.5466122.6398693.6785306.5895425 1.4275919-.548366 1.6143674-.5588235 9.8514286-.5555555 12.0208979.0052287 12.821551.2104575 17.3139592 4.44183l.9188571.8653595-.9005714 1.4980392c-3.0759184 5.1163399-7.2561633 12.6653595-9.1239184 16.475817-1.7443265 3.5594771-1.856653 4.1169935-1.738449 8.6019608l.0940409 3.5640523-.3337143.3339869c-.4225306.4228758-1.6731429.7202615-6.0937143 1.4496732-7.9471021 1.3104575-8.127347 1.475817-8.9802449 8.2163399-.5407347 4.2764706-.5022041 4.4006536 1.2767347 4.1124183 3.6349388-.5888889 13.099102-.620915 22.3183673-.0751634 2.9766531.175817 4.9358368.2398693 5.0122449.1633987.0764082-.0764706.0613878-1.3150327-.0378775-3.1699347-.3311021-6.190196-.2977959-6.3169934 2.4182857-9.3156862.9534694-1.0522876 3.6604082-4.054902 6.0153469-6.6718955 6.4097959-7.1228758 6.9407347-7.6856209 7.2515919-7.6856209.1162449 0 .5374694.25817.9371428.5738562 1.972898 1.561438 11.956898 8.8150327 12.9933061 9.4405229.9972245.6019608 2.3601633 1.0163399 3.8563266 1.1718954 1.9363265.2013072 2.4470204.5843138 2.4483265 1.8366014.0006531.9843137-.2011429 1.1045751-2.7258775 1.6300653-6.5090613 1.3535948-6.6364082 1.5189543-7.5389388 9.8124183-.2925715 2.6875817-.4995919 2.5169935 2.5103673 2.0620915 2.0362449-.3084967 12.1502041-.2248366 17.2453878.1424837 2.3386122.1679738 4.3115102.269281 4.384653.224183.0731429-.0450981.4832653-.5542484.9123266-1.1313726.4290612-.5771242 1.685551-1.9549019 2.7918367-3.0627451 2.2987755-2.2993464 2.2452245-2.172549 1.6182857-3.866013-2.3379592-6.3189543-9.066449-18.4071896-14.2354286-25.5745098-1.9663673-2.727451-1.9578775-2.9326798.2076735-4.8666667 8.5577143-7.6385621 8.7764898-9.8542484 2.3118368-23.3875817-5.4047347-11.3137255-5.6777143-11.9529412-6.4542041-15.1281046-1.1441633-4.6732026.4401632-8.6856209 3.434449-8.6980392 1.056653-.0039216 1.3178775.3045752 1.4419591 1.7058824.5087347 5.7254902 4.3102041 11.4810457 9.2231837 13.9627451 1.7985306.9091503 1.9271837.5163398 1.0017959-3.0542484-.3330612-1.2849673-1.1239183-4.3588235-1.7573877-6.8300654-2.0075102-7.8352941-2.4228572-8.669281-5.1389388-10.31307187-4.5564082-2.75751634-9.5882449-1.27320261-12.544 3.69999997-.3591837.6039216-.683102 1.0980392-.7203265 1.0980392-1.2747755 0-6.0950204-5.20196074-6.6135511-7.13725485-.3800816-1.41633987-.2612244-1.33333334-3.9190204-2.73986929-8.6635102-3.33137254-13.5497142-4.48496732-16.630204-3.92614379m-3.7714286 5.40653595c0 .32875817-2.9949388 1.58888889-3.776 1.58888889-.3565714 0-.4231837-.46862745-.1240816-.87777778.4519183-.61830065 3.9000816-1.24705882 3.9000816-.71111111m36.9149388 32.39607848c4.0417959 7.5666666 4.3369796 8.1980392 4.416653 9.4431372.1469388 2.2888889-1.4706939 3.9941177-5.760653 6.0712418-3.5095511 1.7-3.3789388 1.7660131-8.6099592-4.3862745-4.672-5.4941176-4.8907755-5.8366013-4.5067755-7.0424836.3722449-1.1679739.6915918-1.3457517 5.3008979-2.9503268 5.0514286-1.75817 5.2284082-1.9176471 5.3871021-4.8555556.1645714-3.0379085.1619591-3.0405229 3.7727347 3.7202615" fill-rule="evenodd"/></svg>