<?xml version="1.0" encoding="UTF-8"?>
<!DOCTYPE svg PUBLIC "-//W3C//DTD SVG 1.1//EN" "http://www.w3.org/Graphics/SVG/1.1/DTD/svg11.dtd">
<svg xmlns="http://www.w3.org/2000/svg" version="1.1" width="3840px" height="2160px" style="shape-rendering:geometricPrecision; text-rendering:geometricPrecision; image-rendering:optimizeQuality; fill-rule:evenodd; clip-rule:evenodd" xmlns:xlink="http://www.w3.org/1999/xlink">
<g><path style="opacity:0.995" fill="#000000" d="M 1886.5,76.5 C 1926.25,76.526 1965.42,76.526 2004,76.5C 2022.81,77.4422 2041.64,78.4422 2060.5,79.5C 2061.09,79.2907 2061.59,78.9574 2062,78.5C 2131.94,83.2002 2202.44,88.7002 2273.5,95C 2361.89,105.382 2449.89,118.382 2537.5,134C 2656.44,157.315 2773.11,188.982 2887.5,229C 2973.47,260.32 3056.14,298.654 3135.5,344C 3201.41,382.748 3261.24,429.581 3315,484.5C 3349.91,521.784 3377.25,564.117 3397,611.5C 3428.22,696.383 3423.22,779.05 3382,859.5C 3364.21,892.617 3342.55,922.951 3317,950.5C 3276.95,993.578 3232.45,1031.08 3183.5,1063C 3073.05,1133.55 2955.05,1188.55 2829.5,1228C 2758.39,1249.7 2686.72,1269.36 2614.5,1287C 2384.49,1335.61 2152.66,1360.11 1919,1360.5C 1652.56,1363.11 1388.39,1331.95 1126.5,1267C 1045.22,1244.13 964.884,1218.46 885.5,1190C 796.375,1155.27 712.042,1111.94 632.5,1060C 582.271,1024.08 535.771,983.581 493,938.5C 456.55,895.955 430.216,847.622 414,793.5C 394.573,715.907 404.24,642.24 443,572.5C 480.795,508.692 529.295,454.192 588.5,409C 623.626,382.26 660.626,358.26 699.5,337C 743.439,311.697 788.772,289.03 835.5,269C 911.881,236.65 989.881,208.65 1069.5,185C 1235.85,139.996 1404.85,109.33 1576.5,93C 1660.77,84.5717 1744.27,80.0717 1827,79.5C 1846.94,78.6503 1866.77,77.6503 1886.5,76.5 Z M 2957.5,297.5 C 3006.64,324.897 3054.64,354.064 3101.5,385C 3140.3,412.118 3176.47,442.618 3210,476.5C 3233.98,501.476 3253.64,529.476 3269,560.5C 3282.79,592.345 3285.79,624.345 3278,656.5C 3270.03,688.455 3256.7,717.789 3238,744.5C 3204.54,790.96 3164.71,831.126 3118.5,865C 3055.12,910.703 2987.12,948.703 2914.5,979C 2829.74,1014.37 2742.4,1041.7 2652.5,1061C 2518.92,1089.75 2385.42,1105.92 2252,1109.5C 2078.96,1116.63 1907.13,1110.8 1736.5,1092C 1670.69,1082.64 1605.02,1072.31 1539.5,1061C 1464.42,1047.19 1391.75,1025.53 1321.5,996C 1320.03,995.29 1319.36,994.124 1319.5,992.5C 1865.89,761.597 2411.89,529.93 2957.5,297.5 Z M 1627.5,323.5 C 1776.83,322.24 1926.17,330.074 2075.5,347C 2083.6,347.776 2091.6,349.11 2099.5,351C 1691.77,613.728 1283.77,876.061 875.5,1138C 870.193,1139.94 864.86,1139.94 859.5,1138C 789.528,1103.7 723.528,1063.37 661.5,1017C 626.973,990.473 596.473,959.973 570,925.5C 551.029,899.888 537.695,871.554 530,840.5C 524.368,802.891 529.701,766.891 546,732.5C 558.871,706.074 575.204,682.074 595,660.5C 629.672,624.47 667.838,592.97 709.5,566C 757.765,535.196 808.432,508.53 861.5,486C 972.17,438.776 1085.84,400.11 1202.5,370C 1300.36,348.837 1398.52,335.67 1497,330.5C 1525.33,328.693 1553.66,327.027 1582,325.5C 1583,325.833 1584,326.167 1585,326.5C 1599.26,325.453 1613.43,324.453 1627.5,323.5 Z"/></g>
<g><path style="opacity:0.322" fill="#000000" d="M 3420.5,279.5 C 3421.83,280.167 3421.83,280.167 3420.5,279.5 Z"/></g>
<g><path style="opacity:0.991" fill="#000000" d="M 1434.5,1592.5 C 1462.42,1592.1 1490.26,1592.76 1518,1594.5C 1518.33,1594.17 1518.67,1593.83 1519,1593.5C 1552.85,1597.78 1586.68,1602.45 1620.5,1607.5C 1620.5,1648.17 1620.5,1688.83 1620.5,1729.5C 1609.08,1725.3 1597.75,1720.8 1586.5,1716C 1557.88,1705.94 1528.38,1701.44 1498,1702.5C 1473.41,1701.09 1449.91,1704.59 1427.5,1713C 1417.66,1715.83 1411.66,1722.17 1409.5,1732C 1410.16,1738.65 1413.16,1743.98 1418.5,1748C 1437.09,1761.29 1457.76,1769.62 1480.5,1773C 1499.91,1775.9 1519.24,1779.23 1538.5,1783C 1614.81,1801.33 1651.97,1849.83 1650,1928.5C 1647.49,1976.72 1625.32,2012.56 1583.5,2036C 1569.79,2043.24 1555.46,2048.9 1540.5,2053C 1524.47,2056.67 1508.47,2060.34 1492.5,2064C 1438.17,2064.67 1383.83,2064.67 1329.5,2064C 1297.57,2058.51 1265.57,2053.34 1233.5,2048.5C 1233.5,2008.17 1233.5,1967.83 1233.5,1927.5C 1249.16,1932.55 1264.82,1937.72 1280.5,1943C 1318.52,1951.62 1357.02,1956.79 1396,1958.5C 1412.37,1958.34 1428.54,1956.51 1444.5,1953C 1455.14,1949.93 1464.31,1944.43 1472,1936.5C 1477.99,1926.24 1476.16,1917.74 1466.5,1911C 1450.52,1902.34 1433.86,1895.34 1416.5,1890C 1384.03,1881.51 1351.7,1872.51 1319.5,1863C 1267.51,1845.84 1239.34,1810 1235,1755.5C 1230.48,1689.68 1258.32,1643.52 1318.5,1617C 1355.9,1602.22 1394.57,1594.05 1434.5,1592.5 Z"/></g>
<g><path style="opacity:0.99" fill="#000000" d="M 236.5,1603.5 C 371.146,1603.88 505.812,1604.21 640.5,1604.5C 641.833,1650.17 641.833,1695.83 640.5,1741.5C 568.35,1807.15 496.35,1872.98 424.5,1939C 498.166,1939.5 571.833,1939.67 645.5,1939.5C 645.5,1979.5 645.5,2019.5 645.5,2059.5C 504.833,2059.5 364.167,2059.5 223.5,2059.5C 223.333,2013.17 223.5,1966.83 224,1920.5C 301.34,1853.32 378.507,1785.99 455.5,1718.5C 382.17,1717.5 308.836,1717.17 235.5,1717.5C 235.173,1679.43 235.507,1641.43 236.5,1603.5 Z"/></g>
<g><path style="opacity:0.992" fill="#000000" d="M 817.5,1603.5 C 899.167,1603.5 980.833,1603.5 1062.5,1603.5C 1115.49,1755.46 1168.49,1907.46 1221.5,2059.5C 1160.16,2059.83 1098.83,2059.5 1037.5,2058.5C 1028.18,2026.22 1019.01,1993.88 1010,1961.5C 1009.8,1959.71 1008.97,1958.38 1007.5,1957.5C 957.607,1957.46 907.607,1957.8 857.5,1958.5C 847.163,1991.84 836.829,2025.18 826.5,2058.5C 768.837,2059.5 711.171,2059.83 653.5,2059.5C 707.973,1907.41 762.64,1755.41 817.5,1603.5 Z M 935.5,1701.5 C 949.818,1750.7 964.151,1800.03 978.5,1849.5C 949.167,1850.83 919.833,1850.83 890.5,1849.5C 905.508,1800.14 920.508,1750.81 935.5,1701.5 Z"/></g>
<g><path style="opacity:0.989" fill="#000000" d="M 1675.5,1603.5 C 1836.38,1604.6 1997.22,1604.6 2158,1603.5C 2158.5,1647.5 2158.67,1691.5 2158.5,1735.5C 2106.5,1735.5 2054.5,1735.5 2002.5,1735.5C 2002.67,1843.17 2002.5,1950.83 2002,2058.5C 2001,2059.17 2000,2059.83 1999,2060.5C 1943.8,2060.03 1888.3,2059.7 1832.5,2059.5C 1832.83,1951.5 1832.5,1843.5 1831.5,1735.5C 1779.33,1736.05 1726.99,1736.05 1674.5,1735.5C 1674.17,1691.43 1674.51,1647.43 1675.5,1603.5 Z"/></g>
<g><path style="opacity:0.992" fill="#000000" d="M 2321.5,1603.5 C 2402.38,1604.6 2483.22,1604.6 2564,1603.5C 2618.19,1754.91 2671.69,1906.58 2724.5,2058.5C 2663.17,2059.5 2601.84,2059.83 2540.5,2059.5C 2531.04,2025.78 2521.37,1992.12 2511.5,1958.5C 2461.17,1957.17 2410.83,1957.17 2360.5,1958.5C 2350.16,1991.84 2339.83,2025.18 2329.5,2058.5C 2271.84,2059.5 2214.17,2059.83 2156.5,2059.5C 2210.72,1907.17 2265.72,1755.17 2321.5,1603.5 Z M 2393.5,1850.5 C 2408.2,1800.71 2423.36,1751.05 2439,1701.5C 2453.32,1751.1 2467.48,1800.77 2481.5,1850.5C 2452.27,1850.96 2422.93,1850.96 2393.5,1850.5 Z"/></g>
<g><path style="opacity:0.993" fill="#000000" d="M 2710.5,1603.5 C 2774.17,1603.5 2837.83,1603.5 2901.5,1603.5C 2929.2,1696.62 2957.36,1789.62 2986,1882.5C 3016.74,1790.12 3047.57,1697.79 3078.5,1605.5C 3139.5,1604.33 3200.5,1604.17 3261.5,1605C 3202.7,1756.1 3144.04,1907.26 3085.5,2058.5C 3016.5,2059.5 2947.5,2059.83 2878.5,2059.5C 2823.97,1911.75 2769.14,1764.09 2714,1616.5C 2712.32,1612.3 2711.15,1607.96 2710.5,1603.5 Z"/></g>
<g><path style="opacity:0.992" fill="#000000" d="M 3403.5,1603.5 C 3484.84,1603.17 3566.17,1603.5 3647.5,1604.5C 3700.85,1756.22 3754.18,1907.89 3807.5,2059.5C 3745.83,2059.5 3684.17,2059.5 3622.5,2059.5C 3613.16,2025.49 3603.83,1991.49 3594.5,1957.5C 3543.83,1957.5 3493.17,1957.5 3442.5,1957.5C 3432.67,1991.49 3422.34,2025.33 3411.5,2059C 3353.83,2059.83 3296.16,2059.67 3238.5,2058.5C 3293.31,1906.73 3348.31,1755.06 3403.5,1603.5 Z M 3520.5,1701.5 C 3535.51,1750.67 3549.84,1800.17 3563.5,1850C 3563.33,1850.5 3563.17,1851 3563,1851.5C 3534.2,1851.41 3505.37,1851.41 3476.5,1851.5C 3476.17,1851 3475.83,1850.5 3475.5,1850C 3491.05,1800.64 3506.05,1751.14 3520.5,1701.5 Z"/></g>
</svg>
